<mxfile host="app.diagrams.net" modified="2020-10-20T12:18:59.963Z" agent="5.0 (Windows)" etag="mxUssv5NE107J6M0JTrh" version="13.8.0" type="github">
  <diagram id="2fuOVgWDkTbaCIATIxK5" name="Page-1">
    <mxGraphModel dx="1038" dy="587" grid="1" gridSize="10" guides="1" tooltips="1" connect="1" arrows="1" fold="1" page="1" pageScale="1" pageWidth="850" pageHeight="1100" math="0" shadow="0">
      <root>
        <mxCell id="0" />
        <mxCell id="1" parent="0" />
        <mxCell id="VYabxZhqNwMQ_FFbQ9Al-3" value="" style="rounded=0;whiteSpace=wrap;html=1;fillColor=#60a917;strokeColor=#2D7600;fontColor=#ffffff;" vertex="1" parent="1">
          <mxGeometry width="1040" height="980" as="geometry" />
        </mxCell>
        <mxCell id="VYabxZhqNwMQ_FFbQ9Al-5" value="" style="whiteSpace=wrap;html=1;aspect=fixed;fillColor=#f9f7ed;strokeColor=#36393d;" vertex="1" parent="1">
          <mxGeometry x="100" y="330" width="530" height="530" as="geometry" />
        </mxCell>
        <mxCell id="VYabxZhqNwMQ_FFbQ9Al-6" value="&lt;font size=&quot;1&quot; face=&quot;Tahoma&quot;&gt;&lt;b style=&quot;font-size: 33px&quot;&gt;AnkietBud &lt;/b&gt;&lt;/font&gt;&lt;font size=&quot;1&quot; face=&quot;Tahoma&quot;&gt;&lt;b style=&quot;font-size: 33px&quot;&gt;&lt;span class=&quot;aCOpRe&quot;&gt;&lt;span&gt;✓&lt;/span&gt;&lt;/span&gt;&lt;/b&gt;&lt;/font&gt;&lt;span class=&quot;aCOpRe&quot;&gt;&lt;span&gt;&lt;/span&gt;&lt;/span&gt;" style="text;html=1;strokeColor=none;fillColor=none;align=center;verticalAlign=middle;whiteSpace=wrap;rounded=0;" vertex="1" parent="1">
          <mxGeometry x="110" y="270" width="250" height="70" as="geometry" />
        </mxCell>
        <mxCell id="VYabxZhqNwMQ_FFbQ9Al-7" value="" style="rounded=0;whiteSpace=wrap;html=1;fillColor=#b1ddf0;strokeColor=#10739e;" vertex="1" parent="1">
          <mxGeometry x="285" y="400" width="160" height="40" as="geometry" />
        </mxCell>
        <mxCell id="VYabxZhqNwMQ_FFbQ9Al-8" value="Utwórz ankietę" style="text;html=1;strokeColor=none;fillColor=none;align=center;verticalAlign=middle;whiteSpace=wrap;rounded=0;" vertex="1" parent="1">
          <mxGeometry x="300" y="410" width="130" height="20" as="geometry" />
        </mxCell>
        <mxCell id="VYabxZhqNwMQ_FFbQ9Al-9" value="Potrzebujesz poznać opinii lub poglądy ludzi? Z naszymi ankietami to możliwe. Założenie konta to max. kilka minut!" style="text;html=1;strokeColor=none;fillColor=none;align=center;verticalAlign=middle;whiteSpace=wrap;rounded=0;" vertex="1" parent="1">
          <mxGeometry x="194.5" y="340" width="341" height="60" as="geometry" />
        </mxCell>
        <mxCell id="VYabxZhqNwMQ_FFbQ9Al-10" value="" style="rounded=0;whiteSpace=wrap;html=1;" vertex="1" parent="1">
          <mxGeometry x="130" y="520" width="480" height="290" as="geometry" />
        </mxCell>
        <mxCell id="VYabxZhqNwMQ_FFbQ9Al-4" value="&lt;h1&gt;Proponowane ankiety użytkowników&lt;br&gt;&lt;/h1&gt;&lt;p&gt;&lt;br&gt;&lt;/p&gt;" style="text;html=1;strokeColor=none;fillColor=none;spacing=5;spacingTop=-20;whiteSpace=wrap;overflow=hidden;rounded=0;" vertex="1" parent="1">
          <mxGeometry x="140" y="480" width="490" height="120" as="geometry" />
        </mxCell>
        <mxCell id="VYabxZhqNwMQ_FFbQ9Al-11" value="&lt;h1&gt;Ankieta o żywieniu&lt;br&gt;&lt;/h1&gt;&lt;p&gt;opis ankiety&lt;br&gt;&lt;/p&gt;" style="text;html=1;strokeColor=none;fillColor=none;spacing=5;spacingTop=-20;whiteSpace=wrap;overflow=hidden;rounded=0;" vertex="1" parent="1">
          <mxGeometry x="150" y="535" width="290" height="75" as="geometry" />
        </mxCell>
        <mxCell id="VYabxZhqNwMQ_FFbQ9Al-12" value="&lt;h1&gt;Ankieta o długości snu&lt;br&gt;&lt;/h1&gt;&lt;p&gt;opis ankiety&lt;br&gt;&lt;/p&gt;" style="text;html=1;strokeColor=none;fillColor=none;spacing=5;spacingTop=-20;whiteSpace=wrap;overflow=hidden;rounded=0;" vertex="1" parent="1">
          <mxGeometry x="150" y="640" width="340" height="120" as="geometry" />
        </mxCell>
        <mxCell id="VYabxZhqNwMQ_FFbQ9Al-13" value="" style="endArrow=none;dashed=1;html=1;exitX=-0.004;exitY=0.403;exitDx=0;exitDy=0;exitPerimeter=0;entryX=0.958;entryY=0.42;entryDx=0;entryDy=0;entryPerimeter=0;" edge="1" parent="1" source="VYabxZhqNwMQ_FFbQ9Al-10" target="VYabxZhqNwMQ_FFbQ9Al-10">
          <mxGeometry width="50" height="50" relative="1" as="geometry">
            <mxPoint x="127" y="638" as="sourcePoint" />
            <mxPoint x="470" y="540" as="targetPoint" />
          </mxGeometry>
        </mxCell>
        <mxCell id="VYabxZhqNwMQ_FFbQ9Al-14" value="" style="rounded=0;whiteSpace=wrap;html=1;fillColor=#b0e3e6;strokeColor=#0e8088;" vertex="1" parent="1">
          <mxGeometry x="440" y="557.5" width="140" height="30" as="geometry" />
        </mxCell>
        <mxCell id="VYabxZhqNwMQ_FFbQ9Al-15" value="" style="rounded=0;whiteSpace=wrap;html=1;fillColor=#b0e3e6;strokeColor=#0e8088;" vertex="1" parent="1">
          <mxGeometry x="440" y="670" width="140" height="30" as="geometry" />
        </mxCell>
        <mxCell id="VYabxZhqNwMQ_FFbQ9Al-16" value="Przejdź do ankiety" style="text;html=1;strokeColor=none;fillColor=none;align=center;verticalAlign=middle;whiteSpace=wrap;rounded=0;" vertex="1" parent="1">
          <mxGeometry x="445" y="562.5" width="125" height="20" as="geometry" />
        </mxCell>
        <mxCell id="VYabxZhqNwMQ_FFbQ9Al-17" value="Przejdź do ankiety" style="text;html=1;strokeColor=none;fillColor=none;align=center;verticalAlign=middle;whiteSpace=wrap;rounded=0;" vertex="1" parent="1">
          <mxGeometry x="447.5" y="675" width="120" height="20" as="geometry" />
        </mxCell>
      </root>
    </mxGraphModel>
  </diagram>
</mxfile>
